<?xml version="1.0" encoding="UTF-8"?>
<!DOCTYPE svg PUBLIC "-//W3C//DTD SVG 1.1//EN" "http://www.w3.org/Graphics/SVG/1.1/DTD/svg11.dtd">
<svg xmlns="http://www.w3.org/2000/svg" xmlns:xlink="http://www.w3.org/1999/xlink" version="1.1" width="105px" height="105px" viewBox="-0.5 -0.5 105 105"><defs/><g><path d="M 12.82 58.07 C 2 45.94 2 26.27 12.82 14.14 C 23.64 2 41.19 2 52 14.14 C 62.82 2 80.37 2 91.19 14.14 C 102.01 26.27 102.01 45.94 91.19 58.07 L 52 102 Z Z" fill="#e1d5e7" stroke="#9673a6" stroke-width="5" stroke-miterlimit="10" pointer-events="all"/><path d="M 33.58 53.8 Q 52 72 70.42 53.82" fill="none" stroke="#d6b656" stroke-width="5" stroke-miterlimit="10" pointer-events="stroke"/><path d="M 64.16 43.21 C 62 40.79 62 36.85 64.16 34.43 C 66.33 32 69.84 32 72 34.43 C 74.16 32 77.67 32 79.84 34.43 C 82 36.85 82 40.79 79.84 43.21 L 72 52 Z Z" fill="#fad9d5" stroke="#ae4132" stroke-width="5" stroke-miterlimit="10" pointer-events="all"/><path d="M 24.16 43.21 C 22 40.79 22 36.85 24.16 34.43 C 26.33 32 29.84 32 32 34.43 C 34.16 32 37.67 32 39.84 34.43 C 42 36.85 42 40.79 39.84 43.21 L 32 52 Z Z" fill="#f8cecc" stroke="#b85450" stroke-width="5" stroke-miterlimit="10" pointer-events="all"/></g></svg>