<?xml version="1.0" encoding="UTF-8"?>
<!DOCTYPE svg PUBLIC "-//W3C//DTD SVG 1.1//EN" "http://www.w3.org/Graphics/SVG/1.1/DTD/svg11.dtd">
<svg xmlns="http://www.w3.org/2000/svg" xmlns:xlink="http://www.w3.org/1999/xlink" version="1.1" width="512px" height="512px" viewBox="-0.5 -0.5 107 107"><defs/><g><path d="M 13.82 59.07 C 3 46.94 3 27.27 13.82 15.14 C 24.64 3 42.19 3 53 15.14 C 63.82 3 81.37 3 92.19 15.14 C 103.01 27.27 103.01 46.94 92.19 59.07 L 53 103 Z Z" fill="#e1d5e7" stroke="#9673a6" stroke-width="6" stroke-miterlimit="10" pointer-events="all"/><path d="M 34.58 54.8 Q 53 73 71.42 54.82" fill="none" stroke="#d6b656" stroke-width="6" stroke-miterlimit="10" pointer-events="stroke"/><path d="M 65.16 44.21 C 63 41.79 63 37.85 65.16 35.43 C 67.33 33 70.84 33 73 35.43 C 75.16 33 78.67 33 80.84 35.43 C 83 37.85 83 41.79 80.84 44.21 L 73 53 Z Z" fill="#fad9d5" stroke="#ae4132" stroke-width="6" stroke-miterlimit="10" pointer-events="all"/><path d="M 25.16 44.21 C 23 41.79 23 37.85 25.16 35.43 C 27.33 33 30.84 33 33 35.43 C 35.16 33 38.67 33 40.84 35.43 C 43 37.85 43 41.79 40.84 44.21 L 33 53 Z Z" fill="#f8cecc" stroke="#b85450" stroke-width="6" stroke-miterlimit="10" pointer-events="all"/></g></svg>
